<svg width="38" height="38" viewBox="0 0 38 38" fill="none" xmlns="http://www.w3.org/2000/svg">
<path d="M20.2358 22.9829H18.1973L18.0386 10.2266H20.4067L20.2358 22.9829ZM17.9531 26.8647C17.9531 26.4985 18.063 26.1934 18.2827 25.9492C18.5106 25.6969 18.8442 25.5708 19.2837 25.5708C19.7231 25.5708 20.0568 25.6969 20.2847 25.9492C20.5125 26.1934 20.6265 26.4985 20.6265 26.8647C20.6265 27.231 20.5125 27.5361 20.2847 27.7803C20.0568 28.0163 19.7231 28.1343 19.2837 28.1343C18.8442 28.1343 18.5106 28.0163 18.2827 27.7803C18.063 27.5361 17.9531 27.231 17.9531 26.8647Z" fill="#7258F6"/>
<circle cx="19" cy="19" r="18" stroke="#7258F6" stroke-width="2"/>
</svg>
