<svg width="23" height="22" viewBox="0 0 23 22" fill="none" xmlns="http://www.w3.org/2000/svg">
<path d="M21 11L22.5448 2.47866L14.3927 5.40151L21 11ZM12.4783 1.1099L12.5892 0.368141L12.4783 1.1099ZM19.9116 17.0122C20.1432 16.6688 20.0527 16.2027 19.7093 15.971C19.3659 15.7394 18.8998 15.8299 18.6681 16.1733L19.9116 17.0122ZM19.301 4.16948C19.2494 4.10677 19.197 4.0446 19.1439 3.98295L18.0076 4.96208C18.0533 5.01513 18.0983 5.06864 18.1427 5.12259L19.301 4.16948ZM19.1439 3.98295C17.4626 2.03167 15.1366 0.748916 12.5892 0.368141L12.3675 1.85166C14.5594 2.1793 16.5609 3.28307 18.0076 4.96208L19.1439 3.98295ZM12.5892 0.368141C10.0418 -0.0126332 7.44237 0.533888 5.26398 1.90824L6.06435 3.17686C7.93879 1.99428 10.1755 1.52402 12.3675 1.85166L12.5892 0.368141ZM5.26398 1.90824C3.08559 3.28259 1.47306 5.39341 0.719881 7.85653L2.15432 8.29516C2.8024 6.17573 4.18992 4.35944 6.06435 3.17686L5.26398 1.90824ZM0.719881 7.85653C-0.033301 10.3196 0.122931 12.9713 1.16014 15.329L2.53315 14.7249C1.64066 12.6963 1.50623 10.4146 2.15432 8.29516L0.719881 7.85653ZM1.16014 15.329C2.19735 17.6866 4.04659 19.5934 6.3713 20.7025L7.01717 19.3486C5.01684 18.3944 3.42563 16.7536 2.53315 14.7249L1.16014 15.329ZM6.3713 20.7025C8.69601 21.8115 11.3416 22.049 13.8267 21.3717L13.4323 19.9245C11.294 20.5073 9.0175 20.3029 7.01717 19.3486L6.3713 20.7025ZM13.8267 21.3717C16.3118 20.6945 18.4711 19.1474 19.9116 17.0122L18.6681 16.1733C17.4286 18.0106 15.5706 19.3417 13.4323 19.9245L13.8267 21.3717Z" fill="white"/>
</svg>
